  0
SECTION
  2
HEADER
  9
$ANGBASE
 50
0.0
  9
$EXTMAX
 10
100.0
 20
100.0
 30
0.0
  9
$INSBASE
 10
0.0
 20
0.0
 30
0.0
  9
$AUNITS
 70
0
  9
$ACADVER
  1
AC1009
  9
$UNITMODE
 70
0
  9
$EXTMIN
 10
0.0
 20
0.0
 30
0.0
  9
$ANGDIR
 70
0
  0
ENDSEC
  0
SECTION
  2
TABLES
  0
TABLE
  2
LTYPE
 70
19
  0
LTYPE
  2
PHANTOM
 70
0
  3
Phantom ______  __  __  ______  __  __  ______
 72
65
 73
6
 40
2.5
 49
1.25
 49
-0.25
 49
0.25
 49
-0.25
 49
0.25
 49
-0.25
  0
LTYPE
  2
DOT2
 70
0
  3
Dot (.5) . . . . . . . . . . . . . . . . . . . 
 72
65
 73
2
 40
0.1
 49
0.0
 49
-0.1
  0
LTYPE
  2
DIVIDE
 70
0
  3
Divide __ . . __ . . __ . . __ . . __ . . __
 72
65
 73
6
 40
1.6
 49
1.0
 49
-0.2
 49
0.0
 49
-0.2
 49
0.0
 49
-0.2
  0
LTYPE
  2
DIVIDEX2
 70
0
  3
Divide (2x) ____  . .  ____  . .  ____  . .  ____
 72
65
 73
6
 40
2.6
 49
2.0
 49
-0.2
 49
0.0
 49
-0.2
 49
0.0
 49
-0.2
  0
LTYPE
  2
CENTER
 70
0
  3
Center ____ _ ____ _ ____ _ ____ _ ____ _ ____
 72
65
 73
4
 40
2.0
 49
1.25
 49
-0.25
 49
0.25
 49
-0.25
  0
LTYPE
  2
DASHDOT
 70
0
  3
Dash dot __ . __ . __ . __ . __ . __ . __ . __
 72
65
 73
4
 40
1.4
 49
1.0
 49
-0.2
 49
0.0
 49
-0.2
  0
LTYPE
  2
CENTERX2
 70
0
  3
Center (2x) ________  __  ________  __  ________
 72
65
 73
4
 40
3.5
 49
2.5
 49
-0.25
 49
0.5
 49
-0.25
  0
LTYPE
  2
PHANTOMX2
 70
0
  3
Phantom (2x)____________    ____    ____    ____________
 72
65
 73
6
 40
4.25
 49
2.5
 49
-0.25
 49
0.5
 49
-0.25
 49
0.5
 49
-0.25
  0
LTYPE
  2
CONTINUOUS
 70
0
  3
Solid
 72
65
 73
0
 40
0.0
  0
LTYPE
  2
PHANTOM2
 70
0
  3
Phantom (.5x) ___ _ _ ___ _ _ ___ _ _ ___ _ _ ___
 72
65
 73
6
 40
1.25
 49
0.625
 49
-0.125
 49
0.125
 49
-0.125
 49
0.125
 49
-0.125
  0
LTYPE
  2
DASHED
 70
0
  3
Dashed __ __ __ __ __ __ __ __ __ __ __ __ __ _
 72
65
 73
2
 40
0.6
 49
0.5
 49
-0.1
  0
LTYPE
  2
DASHED2
 70
0
  3
Dashed (.5x) _ _ _ _ _ _ _ _ _ _ _ _ _ _
 72
65
 73
2
 40
0.3
 49
0.25
 49
-0.05
  0
LTYPE
  2
DASHDOT2
 70
0
  3
Dash dot (.5x) _ . _ . _ . _ . _ . _ . _ . _
 72
65
 73
4
 40
0.7
 49
0.5
 49
-0.1
 49
0.0
 49
-0.1
  0
LTYPE
  2
DOTX2
 70
0
  3
Dot (2x) .    .    .    .    .    .    .    . 
 72
65
 73
2
 40
0.4
 49
0.0
 49
-0.4
  0
LTYPE
  2
DIVIDE2
 70
0
  3
Divide(.5x) _ . _ . _ . _ . _ . _ . _ . _
 72
65
 73
6
 40
0.8
 49
0.5
 49
-0.1
 49
0.0
 49
-0.1
 49
0.0
 49
-0.1
  0
LTYPE
  2
CENTER2
 70
0
  3
Center (.5x) ____ _ ____ _ ____ _ ____ _ ____
 72
65
 73
4
 40
1.0
 49
0.625
 49
-0.125
 49
0.125
 49
-0.125
  0
LTYPE
  2
DASHDOTX2
 70
0
  3
Dash dot (2x) ____  .  ____  .  ____  .  ____
 72
65
 73
4
 40
2.4
 49
2.0
 49
-0.2
 49
0.0
 49
-0.2
  0
LTYPE
  2
DOT
 70
0
  3
Dot .  .  .  .  .  .  .  .  .  .  .  .  .  .  .  .
 72
65
 73
2
 40
0.2
 49
0.0
 49
-0.2
  0
LTYPE
  2
DASHEDX2
 70
0
  3
Dashed (2x) ____  ____  ____  ____  ____  ____
 72
65
 73
2
 40
1.2
 49
1.0
 49
-0.2
  0
ENDTAB
  0
TABLE
  2
LAYER
 70
5
  0
LAYER
  2
VIEWPORTS
 70
0
 62
7
  6
CONTINUOUS
  0
LAYER
  2
TABLEGRID
 70
0
 62
1
  6
CONTINUOUS
  0
LAYER
  2
TABLECONTENT
 70
0
 62
1
  6
CONTINUOUS
  0
LAYER
  2
DIMENSIONS
 70
0
 62
1
  6
CONTINUOUS
  0
LAYER
  2
TABLEBACKGROUND
 70
0
 62
1
  6
CONTINUOUS
  0
ENDTAB
  0
TABLE
  2
STYLE
 70
12
  0
STYLE
  2
TIMES
 70
0
 40
0.0
 41
1.0
 42
1.0
 50
0.0
 71
0
  3
times.ttf
  4

  0
STYLE
  2
ARIAL
 70
0
 40
0.0
 41
1.0
 42
1.0
 50
0.0
 71
0
  3
arial.ttf
  4

  0
STYLE
  2
TIMES_BOLD
 70
0
 40
0.0
 41
1.0
 42
1.0
 50
0.0
 71
0
  3
timesbd.ttf
  4

  0
STYLE
  2
ARIAL_BLACK
 70
0
 40
0.0
 41
1.0
 42
1.0
 50
0.0
 71
0
  3
ariblk.ttf
  4

  0
STYLE
  2
TIMES_ITALIC
 70
0
 40
0.0
 41
1.0
 42
1.0
 50
0.0
 71
0
  3
timesi.ttf
  4

  0
STYLE
  2
ISOCPEUR
 70
0
 40
0.0
 41
1.0
 42
1.0
 50
0.0
 71
0
  3
isocpeur.ttf
  4

  0
STYLE
  2
ARIAL_BOLD
 70
0
 40
0.0
 41
1.0
 42
1.0
 50
0.0
 71
0
  3
arialbd.ttf
  4

  0
STYLE
  2
ARIAL_ITALIC
 70
0
 40
0.0
 41
1.0
 42
1.0
 50
0.0
 71
0
  3
ariali.ttf
  4

  0
STYLE
  2
ARIAL_BOLD_ITALIC
 70
0
 40
0.0
 41
1.0
 42
1.0
 50
0.0
 71
0
  3
arialbi.ttf
  4

  0
STYLE
  2
TIMES_BOLD_ITALIC
 70
0
 40
0.0
 41
1.0
 42
1.0
 50
0.0
 71
0
  3
timesbi.ttf
  4

  0
STYLE
  2
ISOCPEUR_ITALIC
 70
0
 40
0.0
 41
1.0
 42
1.0
 50
0.0
 71
0
  3
isocpeui.ttf
  4

  0
STYLE
  2
STANDARD
 70
0
 40
0.0
 41
1.0
 42
1.0
 50
0.0
 71
0
  3
arial.ttf
  4

  0
ENDTAB
  0
TABLE
  2
VIEW
 70
0
  0
ENDTAB
  0
TABLE
  2
APPID
 70
1
  0
APPID
  2
DXFWRITE
 70
0
  0
ENDTAB
  0
TABLE
  2
VPORT
 70
0
  0
ENDTAB
  0
TABLE
  2
UCS
 70
0
  0
ENDTAB
  0
ENDSEC
  0
SECTION
  2
BLOCKS
  0
ENDSEC
  0
SECTION
  2
ENTITIES
  0
VIEWPORT
  8
VIEWPORTS
 67
1
 10
0.0
 20
0.0
 30
0.0
 40
1.0
 41
1.0
 68
1
 69
1
1001
ACAD
1000
MVIEW
1002
{
1070
16
1010
0.0
1020
0.0
1030
0.0
1010
0.0
1020
0.0
1030
0.0
1040
0.0
1040
1.0
1040
0.0
1040
0.0
1040
50.0
1040
0.0
1040
0.0
1070
0
1070
100
1070
1
1070
3
1070
0
1070
0
1070
0
1070
0
1040
0.0
1040
0.0
1040
0.0
1040
0.1
1040
0.1
1040
0.1
1040
0.1
1070
0
1002
{
1002
}
1002
}
  0
CIRCLE
  8
0
 10
-1.04311476046
 20
-1.46087769406
 30
0.0
 40
5.0
  0
CIRCLE
  8
0
 10
-4.6880233751
 20
-11.7513662628
 30
0.0
 40
5.0
  0
CIRCLE
  8
0
 10
-1.34366672281
 20
9.37542189445
 30
0.0
 40
5.0
  0
CIRCLE
  8
0
 10
7.62668327372
 20
4.67706960104
 30
0.0
 40
5.0
  0
CIRCLE
  8
0
 10
8.22376369338
 20
-6.6393177207
 30
0.0
 40
5.0
  0
CIRCLE
  8
0
 10
-11.9752230238
 20
-0.947114882778
 30
0.0
 40
5.0
  0
CIRCLE
  8
0
 10
-2.3769749474
 20
-22.0195258692
 30
0.0
 40
5.0
  0
CIRCLE
  8
0
 10
-13.6849625149
 20
-17.2272440787
 30
0.0
 40
5.0
  0
CIRCLE
  8
0
 10
1.41885700561
 20
19.9386551833
 30
0.0
 40
5.0
  0
CIRCLE
  8
0
 10
-9.30953132086
 20
16.4021435232
 30
0.0
 40
5.0
  0
CIRCLE
  8
0
 10
13.5640377941
 20
13.4766382032
 30
0.0
 40
5.0
  0
CIRCLE
  8
0
 10
17.3331299527
 20
-0.17231527395
 30
0.0
 40
5.0
  0
CIRCLE
  8
0
 10
12.8557660114
 20
-16.6017380442
 30
0.0
 40
5.0
  0
CIRCLE
  8
0
 10
-19.427595123
 20
7.05510683567
 30
0.0
 40
5.0
  0
CIRCLE
  8
0
 10
-22.5344217606
 20
-2.95076756308
 30
0.0
 40
5.0
  0
CIRCLE
  8
0
 10
5.51911342353
 20
-28.9679423748
 30
0.0
 40
5.0
  0
CIRCLE
  8
0
 10
-6.17358937164
 20
-31.8129005234
 30
0.0
 40
5.0
  0
CIRCLE
  8
0
 10
-20.6553858555
 20
-25.2270810884
 30
0.0
 40
5.0
  0
CIRCLE
  8
0
 10
-24.0487017453
 20
-14.9916557522
 30
0.0
 40
5.0
  0
CIRCLE
  8
0
 10
2.11425882429
 20
30.4288185922
 30
0.0
 40
5.0
  0
CIRCLE
  8
0
 10
11.5115726422
 20
23.7707485221
 30
0.0
 40
5.0
  0
CIRCLE
  8
0
 10
-7.18656341341
 20
26.356379699
 30
0.0
 40
5.0
  0
CIRCLE
  8
0
 10
-19.2653092294
 20
20.1782047722
 30
0.0
 40
5.0
  0
CIRCLE
  8
0
 10
21.9009427113
 20
20.0839033686
 30
0.0
 40
5.0
  0
CIRCLE
  8
0
 10
23.1958258967
 20
8.38748569871
 30
0.0
 40
5.0
  0
CIRCLE
  8
0
 10
28.2740968202
 20
-0.872089968771
 30
0.0
 40
5.0
  0
CIRCLE
  8
0
 10
22.1924347761
 20
-9.89509722139
 30
0.0
 40
5.0
  0
CIRCLE
  8
0
 10
22.3919749043
 20
-21.209249387
 30
0.0
 40
5.0
  0
CIRCLE
  8
0
 10
-29.5805198467
 20
11.1114368543
 30
0.0
 40
5.0
  0
CIRCLE
  8
0
 10
-32.6475199659
 20
-5.87252422703
 30
0.0
 40
5.0
  0
CIRCLE
  8
0
 10
10.801637098
 20
-38.3575891965
 30
0.0
 40
5.0
  0
CIRCLE
  8
0
 10
16.0933631841
 20
-29.6843387616
 30
0.0
 40
5.0
  0
CIRCLE
  8
0
 10
-0.122283357166
 20
-40.7376903908
 30
0.0
 40
5.0
  0
CIRCLE
  8
0
 10
-13.1727193646
 20
-39.8935340187
 30
0.0
 40
5.0
  0
CIRCLE
  8
0
 10
-31.3322980853
 20
-26.6242198885
 30
0.0
 40
5.0
  0
CIRCLE
  8
0
 10
-25.0189625091
 20
-35.1548084051
 30
0.0
 40
5.0
  0
CIRCLE
  8
0
 10
-34.4759348258
 20
-17.0047456908
 30
0.0
 40
5.0
  0
CIRCLE
  8
0
 10
5.83134508296
 20
40.658584207
 30
0.0
 40
5.0
  0
CIRCLE
  8
0
 10
-4.02923192221
 20
38.975467466
 30
0.0
 40
5.0
  0
CIRCLE
  8
0
 10
16.8549907722
 20
33.0038079971
 30
0.0
 40
5.0
  0
CIRCLE
  8
0
 10
-16.3048656845
 20
31.6921164946
 30
0.0
 40
5.0
  0
CIRCLE
  8
0
 10
-28.2679617429
 20
26.1434924319
 30
0.0
 40
5.0
  0
CIRCLE
  8
0
 10
31.6205005186
 20
24.1103942174
 30
0.0
 40
5.0
  0
CIRCLE
  8
0
 10
33.6956901285
 20
9.16185271458
 30
0.0
 40
5.0
  0
CIRCLE
  8
0
 10
38.0125202645
 20
-5.82958896691
 30
0.0
 40
5.0
  0
CIRCLE
  8
0
 10
31.787750238
 20
-14.8764231019
 30
0.0
 40
5.0
  0
CIRCLE
  8
0
 10
29.9678038514
 20
-28.5505249186
 30
0.0
 40
5.0
  0
CIRCLE
  8
0
 10
-38.9830918589
 20
5.90536537379
 30
0.0
 40
5.0
  0
CIRCLE
  8
0
 10
-36.0170283685
 20
19.7298218033
 30
0.0
 40
5.0
  0
CIRCLE
  8
0
 10
-43.2498447286
 20
-7.85963399978
 30
0.0
 40
5.0
  0
CIRCLE
 62
20
  8
0
 10
15.1873637759
 20
-48.1713130923
 30
0.0
 40
5.0
  0
CIRCLE
 62
20
  8
0
 10
15.1873637759
 20
51.8286869077
 30
0.0
 40
5.0
  0
CIRCLE
  8
0
 10
21.539371563
 20
-39.8496607581
 30
0.0
 40
5.0
  0
CIRCLE
 62
20
  8
0
 10
-4.01229610265
 20
-50.8796382406
 30
0.0
 40
5.0
  0
CIRCLE
 62
20
  8
0
 10
-4.01229610265
 20
49.1203617594
 30
0.0
 40
5.0
  0
CIRCLE
 62
20
  8
0
 10
-19.2268774074
 20
-48.7773411442
 30
0.0
 40
5.0
  0
CIRCLE
 62
20
  8
0
 10
-19.2268774074
 20
51.2226588558
 30
0.0
 40
5.0
  0
CIRCLE
  8
0
 10
-42.039853366
 20
-24.765595624
 30
0.0
 40
5.0
  0
CIRCLE
  8
0
 10
-37.6638962921
 20
-35.0589639739
 30
0.0
 40
5.0
  0
CIRCLE
  8
0
 10
-30.9426481968
 20
-43.9034202316
 30
0.0
 40
5.0
  0
CIRCLE
  8
0
 10
-14.2223502765
 20
42.1185585117
 30
0.0
 40
5.0
  0
CIRCLE
  8
0
 10
26.7344958332
 20
37.146466207
 30
0.0
 40
5.0
  0
CIRCLE
  8
0
 10
-26.1474914623
 20
36.4490322414
 30
0.0
 40
5.0
  0
CIRCLE
  8
0
 10
-35.8536185847
 20
33.555015078
 30
0.0
 40
5.0
  0
CIRCLE
  8
0
 10
41.8555361149
 20
27.0586499296
 30
0.0
 40
5.0
  0
CIRCLE
  8
0
 10
39.9522491941
 20
17.0525354746
 30
0.0
 40
5.0
  0
CIRCLE
  8
0
 10
42.8089276205
 20
3.40159199231
 30
0.0
 40
5.0
  0
CIRCLE
  8
0
 10
44.8885461558
 20
-14.0031071502
 30
0.0
 40
5.0
  0
CIRCLE
  8
0
 10
39.4765563403
 20
-22.5884259021
 30
0.0
 40
5.0
  0
CIRCLE
  8
0
 10
39.3509210202
 20
-33.5716485267
 30
0.0
 40
5.0
  0
CIRCLE
 62
20
  8
0
 10
-47.8663289614
 20
12.2491248927
 30
0.0
 40
5.0
  0
CIRCLE
 62
20
  8
0
 10
52.1336710386
 20
12.2491248927
 30
0.0
 40
5.0
  0
CIRCLE
  8
0
 10
-44.9705342747
 20
25.2715965627
 30
0.0
 40
5.0
  0
CIRCLE
 62
20
  8
0
 10
25.3378035535
 20
-52.2896034606
 30
0.0
 40
5.0
  0
CIRCLE
 62
20
  8
0
 10
25.3378035535
 20
47.7103965394
 30
0.0
 40
5.0
  0
CIRCLE
  8
0
 10
31.504048708
 20
-44.0102371345
 30
0.0
 40
5.0
  0
CIRCLE
 62
20
  8
0
 10
-28.8578625381
 20
-53.7304091691
 30
0.0
 40
5.0
  0
CIRCLE
 62
20
  8
0
 10
-28.8578625381
 20
46.2695908309
 30
0.0
 40
5.0
  0
CIRCLE
 62
20
  8
0
 10
-48.568627367
 20
-33.5879278146
 30
0.0
 40
5.0
  0
CIRCLE
 62
20
  8
0
 10
51.431372633
 20
-33.5879278146
 30
0.0
 40
5.0
  0
CIRCLE
  8
0
 10
-41.6977790897
 20
-44.8128273573
 30
0.0
 40
5.0
  0
CIRCLE
  8
0
 10
37.6451103144
 20
36.6744425609
 30
0.0
 40
5.0
  0
CIRCLE
 62
20
  8
0
 10
-46.1777716317
 20
35.71380962
 30
0.0
 40
5.0
  0
CIRCLE
 62
20
  8
0
 10
53.8222283683
 20
35.71380962
 30
0.0
 40
5.0
  0
CIRCLE
  8
0
 10
-39.1931797237
 20
43.955814373
 30
0.0
 40
5.0
  0
CIRCLE
  8
0
 10
43.8627612083
 20
-43.3963953847
 30
0.0
 40
5.0
  0
CIRCLE
 62
20
  8
0
 10
36.2547511323
 20
-53.1554888766
 30
0.0
 40
5.0
  0
CIRCLE
 62
20
  8
0
 10
36.2547511323
 20
46.8445111234
 30
0.0
 40
5.0
  0
CIRCLE
 62
90
  8
0
 10
-50.2095029971
 20
-51.4525983358
 30
0.0
 40
5.0
  0
CIRCLE
 62
130
  8
0
 10
-50.2095029971
 20
48.5474016642
 30
0.0
 40
5.0
  0
CIRCLE
 62
170
  8
0
 10
49.7904970029
 20
-51.4525983358
 30
0.0
 40
5.0
  0
CIRCLE
 62
210
  8
0
 10
49.7904970029
 20
48.5474016642
 30
0.0
 40
5.0
  0
ENDSEC
  0
EOF
